inDegrees=no
num_controls=7
num_derivatives=13
num_iterations=96
num_multipliers=7
num_parameters=0
num_slacks=7
num_states=26
objective=0.443984
objective_accelerations=0.059813
objective_balance=0.003761
objective_effort=0.024179
objective_height=0.350763
objective_ligament=0.005467
solver_duration=1408.853064
status=Solve_Succeeded
success=true
DataType=double
version=3
OpenSimVersion=4.5
endheader
time	/jointset/ground_pelvis/pelvis_tilt/value	/jointset/ground_pelvis/pelvis_tx/value	/jointset/ground_pelvis/pelvis_ty/value	/jointset/hip_l/hip_flexion_l/value	/jointset/hip_l/hip_adduction_l/value	/jointset/hip_l/hip_rotation_l/value	/jointset/back/lumbar_extension/value	/jointset/patellofemoral_l/patellar_flexion_l/value	/jointset/knee_l/knee_flexion_l/value	/jointset/knee_l/knee_adduction_l/value	/jointset/knee_l/knee_rotation_l/value	/jointset/ankle_l/ankle_angle_l/value	/jointset/subtalar_l/subtalar_angle_l/value	/jointset/ground_pelvis/pelvis_tilt/speed	/jointset/ground_pelvis/pelvis_tx/speed	/jointset/ground_pelvis/pelvis_ty/speed	/jointset/hip_l/hip_flexion_l/speed	/jointset/hip_l/hip_adduction_l/speed	/jointset/hip_l/hip_rotation_l/speed	/jointset/back/lumbar_extension/speed	/jointset/patellofemoral_l/patellar_flexion_l/speed	/jointset/knee_l/knee_flexion_l/speed	/jointset/knee_l/knee_adduction_l/speed	/jointset/knee_l/knee_rotation_l/speed	/jointset/ankle_l/ankle_angle_l/speed	/jointset/subtalar_l/subtalar_angle_l/speed	/forceset/tau_hip_flexion_l	/forceset/tau_hip_adduction_l	/forceset/tau_hip_rotation_l	/forceset/tau_knee_flexion_l	/forceset/tau_ankle_angle_l	/forceset/tau_subtalar_angle_l	/forceset/tau_lumbar_extension	lambda_cid13_p0	lambda_cid13_p1	lambda_cid13_p2	lambda_cid13_p3	lambda_cid13_p4	lambda_cid13_p5	lambda_cid14_p0	/jointset/ground_pelvis/pelvis_tilt/accel	/jointset/ground_pelvis/pelvis_tx/accel	/jointset/ground_pelvis/pelvis_ty/accel	/jointset/hip_l/hip_flexion_l/accel	/jointset/hip_l/hip_adduction_l/accel	/jointset/hip_l/hip_rotation_l/accel	/jointset/back/lumbar_extension/accel	/jointset/patellofemoral_l/patellar_flexion_l/accel	/jointset/knee_l/knee_flexion_l/accel	/jointset/knee_l/knee_adduction_l/accel	/jointset/knee_l/knee_rotation_l/accel	/jointset/ankle_l/ankle_angle_l/accel	/jointset/subtalar_l/subtalar_angle_l/accel	gamma_cid13_p0	gamma_cid13_p1	gamma_cid13_p2	gamma_cid13_p3	gamma_cid13_p4	gamma_cid13_p5	gamma_cid14_p0
0	-0.03962228777946011	0.06895664260080744	0.8959547582351962	0.1955287580552426	-0.3219660633018774	-0.4842078337612397	-0.1379045077516729	0.07015288079084814	0.07015288079084844	-0.1745326586754851	-0.1186332818778518	-0.06701059314715049	0.003872540790303601	0	0	0	0	0	0	0	0	0	0	0	0	0	0.1062914800568302	-0.09886664029121899	-0.02948905811334317	-0.2281302246122951	0.1799491037876572	-0.01336362081165445	-0.05234207894201364	22.16597197673682	-1.310957018157718	3.5667213710934	3.970266127904184	-514.0203464334206	-82.30104448754101	-39.9359521611087	-4.727149691776312	-2.021213383590637	-1.022167161354443	13.23816261187846	-2.168241458249249	3.470807308609559	-2.913736059782364	10.52961660395879	10.52961660396052	0.7311026874160245	-0.8616494480694371	2.232571000543499	-1.165334555444257	-3.094996829662138e-08	1.230857339493928e-07	1.505268773814808e-07	8.069993168031466e-09	-4.828148951867745e-09	-5.394269566858545e-08	-9.863884253865202e-09
0.01	-0.03984810892208319	0.06885696396628106	0.8959051428658222	0.1961693425486877	-0.3220725627697198	-0.4840337932627365	-0.1380562588756215	0.07066411774612784	0.07066411774612909	-0.1744993502487498	-0.1186701108903472	-0.06690383616865302	0.00381367589255566	-0.04496933720576911	-0.01984118008155224	-0.009889433677689815	0.1275473750317264	-0.02116852866030028	0.0346429430795021	-0.03007167659550517	0.1017590078021647	0.1017590078021714	0.006678064895290538	-0.007327428346831587	0.02125031513944762	-0.01168512998100387	0.1019729773181229	-0.09771780209546153	-0.02871535610868037	-0.2231040202921995	0.1732711936150026	-0.01066972307588162	-0.0486119970970981	20.09096558464778	-2.135885891827431	3.719126043990555	4.571370181708066	-514.9805788820195	-83.84769905470641	-39.94632314179521	-4.352605288285909	-1.951386682881356	-0.9672864070534266	12.42758297456451	-2.071489197998164	3.436246399220521	-3.012101230292112	9.925787353086205	9.925787353086191	0.6386537817353535	-0.6625171821417262	2.056101621661544	-1.156961619894798	-6.83677139492133e-08	1.597609568579549e-07	2.156556636269547e-07	4.764458830255647e-08	-2.428648462992582e-07	-9.194557862320078e-08	-1.293777733417127e-08
0.02	-0.0405177793474267	0.06856171025845043	0.8957576421724559	0.198068312397599	-0.3223868136497803	-0.483518281615117	-0.1385003703196966	0.07217829367637504	0.07217829367637488	-0.1743987620947829	-0.1187790597171431	-0.06658760806855772	0.003640587814904395	-0.08876985654387824	-0.0391150146608539	-0.01957706479848985	0.2516770710932481	-0.04155028244371042	0.0682942298230029	-0.05847206402530983	0.2005877949939635	0.2005877949939705	0.01345594543657011	-0.01442396285973113	0.04189422431954008	-0.02284463598066325	0.09765447457940825	-0.09656896389970616	-0.02794165410401186	-0.2180778159721246	0.1665932834423368	-0.007975825340117199	-0.04488191525217525	18.08147839718814	-2.972868802107851	3.874118302874126	5.02005183352501	-514.977120951154	-85.22513268148506	-39.97680620968955	-4.493386118244322	-1.90774428314052	-0.9818066499764918	12.55462681783751	-2.010886482871265	3.272476041409295	-2.579478226642255	9.943572481885594	9.943572481886058	0.7510658166137354	-0.8154706812830327	2.111289808672452	-1.060209759175416	-1.057854596018052e-07	1.964361797665169e-07	2.807844498724286e-07	8.721918343708148e-08	-4.809015436466486e-07	-1.299484615778161e-07	-1.601167041447735e-08
0.03	-0.04162009241938792	0.06807676172951083	0.895513928061524	0.2011924205235046	-0.3229010963391049	-0.4826710939877046	-0.1392196331665304	0.07466719530186695	0.07466719530187313	-0.1742299967941267	-0.1189580405358236	-0.06606729318664815	0.003358724878833317	-0.1314752546933604	-0.05775634418212834	-0.02915676113434481	0.3725453818151201	-0.06119141794667076	0.101012937440468	-0.08512558281333629	0.2967422893747658	0.2967422893747675	0.02026992298830554	-0.02130840150400152	0.06210983207354014	-0.03343695986163246	0.0934267220799504	-0.0940897464314645	-0.0273194749558528	-0.2147490991194282	0.1631681990720928	-0.007159510350007302	-0.04126924735330703	17.05788579346465	-3.187033126825613	3.952651821791733	4.891216734451143	-514.8343469959112	-85.00969469678762	-40.0261131506074	-4.126503314891213	-1.824557641164455	-0.9447988294352424	11.76303738552902	-1.923552233085111	3.25197826471295	-2.670050325660897	9.383855021406205	9.383855021405113	0.6425496363917584	-0.6153272200588825	1.967857810852861	-1.045157582264789	-1.365988019395305e-07	2.178833111127868e-07	3.421963000251381e-07	1.164427543017481e-07	-6.581571644484565e-07	-1.689688059148772e-07	-2.026738190902704e-08
0.04	-0.04314293680316272	0.06740895383444979	0.8951746674464245	0.2055072325938608	-0.3236083554132737	-0.481500637255556	-0.1401977835253999	0.07810413529221762	0.07810413529221789	-0.1739938945355487	-0.1192039450937478	-0.06534658991678066	0.002973655928011113	-0.1728761189064791	-0.07568688788514352	-0.03868636563201139	0.4898178599836742	-0.08014555941269738	0.1329480507698465	-0.1102495664324838	0.3901954679647135	0.3901954679647064	0.02692333701757153	-0.02780871071066587	0.08197190191110261	-0.04348583893088754	0.08919896958046891	-0.09161052896323056	-0.02669729580775961	-0.2114203822667435	0.1597431147018373	-0.006343195359911226	-0.03765657945444313	16.09367098488919	-3.411461567669349	4.032670986758949	4.620991877863983	-513.820003232521	-84.63564578592893	-40.09264954427043	-4.232479330971618	-1.765587119488673	-0.971788282338816	11.83546030717392	-1.873487675484538	3.115757183791965	-2.273571192866462	9.403309323714669	9.403309323714392	0.7189531121198195	-0.7386447937618286	2.040582225384922	-0.9515207968326129	-1.672759710130317e-07	2.39016461189731e-07	4.03531512320265e-07	1.454529019855929e-07	-8.341595671771597e-07	-2.080101288371435e-07	-2.454746079356114e-08
0.05	-0.04507411973186751	0.0665652431381598	0.8947400529297356	0.2109784975523749	-0.3245016354904356	-0.4800151489690221	-0.1414189039285591	0.08246295997530323	0.08246295997530416	-0.1736917819125493	-0.1195136391665501	-0.06442892873032299	0.002490955248376595	-0.2131461066655715	-0.09294791837766231	-0.04824730784403269	0.6038586400124291	-0.09838286477013976	0.1640077869536072	-0.1337412809518262	0.4811082440648686	0.4811082440648696	0.0334679579616026	-0.03407372342518167	0.1014761382714403	-0.05296454741555707	0.0844680467536402	-0.08776055283947946	-0.02598906973173869	-0.2080053500582146	0.156276675155373	-0.006409678546246058	-0.03378195429723164	15.07339894207725	-3.276329917729734	4.093807293090284	4.657217323234177	-512.8515386713084	-83.42119817024157	-40.17442490580892	-3.892116544550704	-1.690231739866626	-0.950030965532255	11.10188747619411	-1.779777882025075	3.07975494292137	-2.351986594325784	8.86608300914172	8.866083009143106	0.6176177675746133	-0.5619214605298454	1.892712084823386	-0.9326662317985933	-1.847876751022313e-07	2.387836947614796e-07	4.394147172793924e-07	1.625501787839177e-07	-9.410504123030189e-07	-2.321427791072852e-07	-2.759716190786967e-08
0.06	-0.04740157414739832	0.06555214799179798	0.8942094722359468	0.2175728704362681	-0.3255734738044019	-0.4782233286991989	-0.1428679444794838	0.08771707667058351	0.08771707667058475	-0.1733251428436997	-0.1198842817565467	-0.06331875163156885	0.001916143412392469	-0.2521304162715663	-0.1095637778995076	-0.05787960105199636	0.7144394450598991	-0.1158572067736218	0.1942144474274978	-0.1558335959854737	0.5692538704040544	0.5692538704040643	0.03982862618682762	-0.03999841414903278	0.1204750843703849	-0.06190807020080615	0.07973712392678689	-0.08391057671572934	-0.02528084365570935	-0.2045903178497021	0.1528102356089021	-0.006476161732585621	-0.02990732914003426	14.10653533401963	-3.149123054580195	4.154577905691727	4.565097872554565	-511.102841172044	-82.06092717236152	-40.26922105885627	-3.975343700352117	-1.636552925353985	-0.9860584815272883	11.14346531091694	-1.720895004692469	2.945142041817979	-1.993691295727481	8.849879371520814	8.849879371520679	0.6821625683585931	-0.6705803956288949	1.939524173106278	-0.8444836569485362	-2.017450438236708e-07	2.376513107961672e-07	4.742262587717409e-07	1.791458610186417e-07	-1.045031297108758e-06	-2.556476957920743e-07	-3.059505764237922e-08
0.07000000000000001	-0.05011329986263918	0.06437609266483257	0.8935819472036863	0.2252574361657144	-0.3268162630063519	-0.4761339648992423	-0.1445300656940312	0.09383997629489031	0.09383997629489089	-0.1728955446815136	-0.120313138063197	-0.06202069444724203	0.00125476783671886	-0.2899955142533026	-0.1255380113711815	-0.0676507366331951	0.8218996311528498	-0.1325673279568296	0.2235220874331892	-0.1763652419382288	0.6548666834992611	0.6548666834992716	0.04605496831655116	-0.04571079731042083	0.1390512696939235	-0.07027272648729563	0.074633321261248	-0.08061514370775018	-0.02453066671710862	-0.201471401661889	0.1491244837456766	-0.005846589863819736	-0.02580900996043266	13.08233813470573	-3.291632828784765	4.232600663542979	4.521527697450505	-509.5169518134311	-81.26761676787237	-40.37453273285967	-3.659221279800437	-1.561431109399968	-0.9766510480174233	10.46115754931106	-1.626143284142002	2.903076060452317	-2.049090497170625	8.348082790165423	8.348082790165558	0.5875570747132921	-0.5121967250293465	1.803899093139034	-0.8183989591826626	-2.084278357803181e-07	2.153114526092369e-07	4.894764771982158e-07	1.849687918471489e-07	-1.090686183313608e-06	-2.691063859341136e-07	-3.333121736057548e-08
0.08	-0.05319710224424132	0.06304358049288523	0.8928559088252936	0.2339993762142542	-0.3282221679419351	-0.4737556244831271	-0.146390741218531	0.1008052241524779	0.1008052241524786	-0.1724047456901432	-0.1207972440911886	-0.06053942873344752	0.0005125572292436288	-0.32654574954368	-0.1408551468958942	-0.07758227027844938	0.9259143088788768	-0.1484803535003209	0.252009770659185	-0.1955444579758271	0.7377235170602601	0.7377235170602711	0.05206879202363757	-0.05104835841723226	0.1571167902639174	-0.07807507656112575	0.06952951859569836	-0.07731971069976873	-0.02378048977850679	-0.1983524854740773	0.1454387318824519	-0.005217017995050983	-0.02171069078084258	12.10473519493312	-3.440587875371182	4.309694597956087	4.365597936303057	-507.2469000629255	-80.34529739790729	-40.48769149194327	-3.712371162080371	-1.505133335961764	-1.0181380943384	10.45436363753218	-1.561475876749165	2.781150685878874	-1.723205312696132	8.298683464679224	8.298683464679163	0.6396588838311614	-0.595615984713575	1.837391222397345	-0.7320224144166736	-2.144477518166562e-07	1.916033702789763e-07	5.03464674781731e-07	1.900967064559002e-07	-1.132578101866787e-06	-2.819169324282335e-07	-3.605049088417087e-08
0.09	-0.05664072050989771	0.06156113836334679	0.8920295304004601	0.2437659695673709	-0.3297832557366487	-0.4710968756599632	-0.1484355660191236	0.1085864531950182	0.1085864531950153	-0.1718545729758043	-0.1213336516705165	-0.05887965739069782	-0.0003046901246354626	-0.3619561133043907	-0.1555236239914324	-0.08772914361261566	1.026835661123795	-0.1635985501325196	0.2796035360123664	-0.2132002860795447	0.8180643455113035	0.8180643455113357	0.05792880238572393	-0.05617205965594022	0.1747491564262114	-0.08527684192558672	0.06406614518296815	-0.07395217222843059	-0.02299302279648961	-0.1954178346505811	0.14166911949077	-0.004415646509123019	-0.01738547066722865	11.08750761427788	-3.651496533135995	4.390130593277473	4.29931738786185	-505.2346532587563	-79.53145728060724	-40.60586186758481	-3.422107624496682	-1.431218541094484	-1.018548484269758	9.825690404470215	-1.466256647334315	2.727949021210083	-1.753739149725753	7.83309789890669	7.833097898909862	0.5537172807605532	-0.4615112361121101	1.712905608323775	-0.6997064490775805	-2.119571250768652e-07	1.551230822222109e-07	4.997949174586021e-07	1.865824242541006e-07	-1.12725617969175e-06	-2.846429581215403e-07	-3.808334378244106e-08
